# xmcd
#
# Track frame offsets: 
#        150
#        37195
#        81012
#        125723
#        161470
#        221700
#        248849
#
# Disc length: 4177 seconds
#
# Revision: 0
# Processed by: cddbd v1.5.2PL0 Copyright (c) Steve Scherf et al.
# Submitted via: ExactAudioCopy v0.95b3
#
DISCID=5f104f07
DTITLE=Mick Taylor - Live at the Lonestar Cafe - 1987-07-04
DYEAR=1987
DGENRE=Blues
TTITLE0=Soliloquy
TTITLE1=Spanish
TTITLE2=Baby What You Want Me To Do
TTITLE3=Blues In The Morning
TTITLE4=Going South
TTITLE5=Hot Water Music
TTITLE6=Can't You Hear Me Knocking
EXTD=
EXTT0=
EXTT1=
EXTT2=
EXTT3=
EXTT4=
EXTT5=
EXTT6=
PLAYORDER=
